<?xml version="1.0" encoding="UTF-8" standalone="no"?>
<!-- Created with Inkscape (http://www.inkscape.org/) -->
<svg
   xmlns:dc="http://purl.org/dc/elements/1.1/"
   xmlns:cc="http://web.resource.org/cc/"
   xmlns:rdf="http://www.w3.org/1999/02/22-rdf-syntax-ns#"
   xmlns:svg="http://www.w3.org/2000/svg"
   xmlns="http://www.w3.org/2000/svg"
   xmlns:xlink="http://www.w3.org/1999/xlink"
   xmlns:sodipodi="http://sodipodi.sourceforge.net/DTD/sodipodi-0.dtd"
   xmlns:inkscape="http://www.inkscape.org/namespaces/inkscape"
   width="744.09448819"
   height="1052.3622047"
   id="svg2"
   sodipodi:version="0.32"
   inkscape:version="0.44"
   sodipodi:docbase="C:\Projects\heyudosvn\assets"
   sodipodi:docname="message_stamp.svg"
   inkscape:export-filename="C:\Projects\heyudosvn\public\images\message_stamp.png"
   inkscape:export-xdpi="90"
   inkscape:export-ydpi="90">
  <defs
     id="defs4">
    <linearGradient
       id="linearGradient5592">
      <stop
         style="stop-color:black;stop-opacity:1;"
         offset="0"
         id="stop5594" />
      <stop
         style="stop-color:black;stop-opacity:0;"
         offset="1"
         id="stop5596" />
    </linearGradient>
    <linearGradient
       id="linearGradient3814">
      <stop
         style="stop-color:#aad633;stop-opacity:1;"
         offset="0"
         id="stop3816" />
      <stop
         style="stop-color:#799a1e;stop-opacity:1;"
         offset="1"
         id="stop3818" />
    </linearGradient>
    <linearGradient
       id="linearGradient2851">
      <stop
         style="stop-color:#aecf55;stop-opacity:1;"
         offset="0"
         id="stop2853" />
      <stop
         style="stop-color:#88a82f;stop-opacity:1;"
         offset="1"
         id="stop2855" />
    </linearGradient>
    <linearGradient
       inkscape:collect="always"
       xlink:href="#linearGradient3814"
       id="linearGradient3820"
       x1="232.05693"
       y1="411.90598"
       x2="232.05693"
       y2="483.90894"
       gradientUnits="userSpaceOnUse" />
  </defs>
  <sodipodi:namedview
     id="base"
     pagecolor="#ffffff"
     bordercolor="#666666"
     borderopacity="1.0"
     inkscape:pageopacity="0.0"
     inkscape:pageshadow="2"
     inkscape:zoom="2"
     inkscape:cx="156.45597"
     inkscape:cy="596.92379"
     inkscape:document-units="px"
     inkscape:current-layer="layer1"
     inkscape:window-width="907"
     inkscape:window-height="636"
     inkscape:window-x="0"
     inkscape:window-y="25" />
  <metadata
     id="metadata7">
    <rdf:RDF>
      <cc:Work
         rdf:about="">
        <dc:format>image/svg+xml</dc:format>
        <dc:type
           rdf:resource="http://purl.org/dc/dcmitype/StillImage" />
      </cc:Work>
    </rdf:RDF>
  </metadata>
  <g
     inkscape:label="Layer 1"
     inkscape:groupmode="layer"
     id="layer1">
    <rect
       style="fill:#ff8d00;fill-opacity:1"
       id="rect2288"
       width="222"
       height="113"
       x="68"
       y="392.36218" />
    <rect
       style="opacity:1;fill:#69b9e0;fill-opacity:1;stroke:#ffffff;stroke-width:5.001;stroke-linecap:round;stroke-linejoin:round;stroke-miterlimit:4;stroke-dasharray:none;stroke-opacity:1"
       id="rect2190"
       width="87"
       height="87"
       x="190"
       y="405.36218" />
    <path
       sodipodi:type="arc"
       style="opacity:1;fill:#ff8d00;fill-opacity:1;stroke:none;stroke-width:3.00099993;stroke-linecap:round;stroke-linejoin:round;stroke-miterlimit:4;stroke-dasharray:none;stroke-opacity:1"
       id="path2192"
       sodipodi:cx="66.75"
       sodipodi:cy="388.61218"
       sodipodi:rx="6.75"
       sodipodi:ry="6.75"
       d="M 73.5 388.61218 A 6.75 6.75 0 1 1  60,388.61218 A 6.75 6.75 0 1 1  73.5 388.61218 z"
       transform="translate(118,26)" />
    <path
       transform="translate(118,42)"
       d="M 73.5 388.61218 A 6.75 6.75 0 1 1  60,388.61218 A 6.75 6.75 0 1 1  73.5 388.61218 z"
       sodipodi:ry="6.75"
       sodipodi:rx="6.75"
       sodipodi:cy="388.61218"
       sodipodi:cx="66.75"
       id="path3960"
       style="opacity:1;fill:#ff8d00;fill-opacity:1;stroke:none;stroke-width:3.00099993;stroke-linecap:round;stroke-linejoin:round;stroke-miterlimit:4;stroke-dasharray:none;stroke-opacity:1"
       sodipodi:type="arc" />
    <path
       sodipodi:type="arc"
       style="opacity:1;fill:#ff8d00;fill-opacity:1;stroke:none;stroke-width:3.00099993;stroke-linecap:round;stroke-linejoin:round;stroke-miterlimit:4;stroke-dasharray:none;stroke-opacity:1"
       id="path3962"
       sodipodi:cx="66.75"
       sodipodi:cy="388.61218"
       sodipodi:rx="6.75"
       sodipodi:ry="6.75"
       d="M 73.5 388.61218 A 6.75 6.75 0 1 1  60,388.61218 A 6.75 6.75 0 1 1  73.5 388.61218 z"
       transform="translate(118,58)" />
    <path
       transform="translate(118,74)"
       d="M 73.5 388.61218 A 6.75 6.75 0 1 1  60,388.61218 A 6.75 6.75 0 1 1  73.5 388.61218 z"
       sodipodi:ry="6.75"
       sodipodi:rx="6.75"
       sodipodi:cy="388.61218"
       sodipodi:cx="66.75"
       id="path3964"
       style="opacity:1;fill:#ff8d00;fill-opacity:1;stroke:none;stroke-width:3.00099993;stroke-linecap:round;stroke-linejoin:round;stroke-miterlimit:4;stroke-dasharray:none;stroke-opacity:1"
       sodipodi:type="arc" />
    <path
       sodipodi:type="arc"
       style="opacity:1;fill:#ff8d00;fill-opacity:1;stroke:none;stroke-width:3.00099993;stroke-linecap:round;stroke-linejoin:round;stroke-miterlimit:4;stroke-dasharray:none;stroke-opacity:1"
       id="path3966"
       sodipodi:cx="66.75"
       sodipodi:cy="388.61218"
       sodipodi:rx="6.75"
       sodipodi:ry="6.75"
       d="M 73.5 388.61218 A 6.75 6.75 0 1 1  60,388.61218 A 6.75 6.75 0 1 1  73.5 388.61218 z"
       transform="translate(118,90)" />
    <path
       transform="translate(134,109)"
       d="M 73.5 388.61218 A 6.75 6.75 0 1 1  60,388.61218 A 6.75 6.75 0 1 1  73.5 388.61218 z"
       sodipodi:ry="6.75"
       sodipodi:rx="6.75"
       sodipodi:cy="388.61218"
       sodipodi:cx="66.75"
       id="path3968"
       style="opacity:1;fill:#ff8d00;fill-opacity:1;stroke:none;stroke-width:3.00099993;stroke-linecap:round;stroke-linejoin:round;stroke-miterlimit:4;stroke-dasharray:none;stroke-opacity:1"
       sodipodi:type="arc" />
    <path
       sodipodi:type="arc"
       style="opacity:1;fill:#ff8d00;fill-opacity:1;stroke:none;stroke-width:3.00099993;stroke-linecap:round;stroke-linejoin:round;stroke-miterlimit:4;stroke-dasharray:none;stroke-opacity:1"
       id="path4000"
       sodipodi:cx="66.75"
       sodipodi:cy="388.61218"
       sodipodi:rx="6.75"
       sodipodi:ry="6.75"
       d="M 73.5 388.61218 A 6.75 6.75 0 1 1  60,388.61218 A 6.75 6.75 0 1 1  73.5 388.61218 z"
       transform="translate(150,109)" />
    <path
       transform="translate(166,109)"
       d="M 73.5 388.61218 A 6.75 6.75 0 1 1  60,388.61218 A 6.75 6.75 0 1 1  73.5 388.61218 z"
       sodipodi:ry="6.75"
       sodipodi:rx="6.75"
       sodipodi:cy="388.61218"
       sodipodi:cx="66.75"
       id="path4002"
       style="opacity:1;fill:#ff8d00;fill-opacity:1;stroke:none;stroke-width:3.00099993;stroke-linecap:round;stroke-linejoin:round;stroke-miterlimit:4;stroke-dasharray:none;stroke-opacity:1"
       sodipodi:type="arc" />
    <path
       sodipodi:type="arc"
       style="opacity:1;fill:#ff8d00;fill-opacity:1;stroke:none;stroke-width:3.00099993;stroke-linecap:round;stroke-linejoin:round;stroke-miterlimit:4;stroke-dasharray:none;stroke-opacity:1"
       id="path4004"
       sodipodi:cx="66.75"
       sodipodi:cy="388.61218"
       sodipodi:rx="6.75"
       sodipodi:ry="6.75"
       d="M 73.5 388.61218 A 6.75 6.75 0 1 1  60,388.61218 A 6.75 6.75 0 1 1  73.5 388.61218 z"
       transform="translate(182,109)" />
    <path
       transform="translate(198,109)"
       d="M 73.5 388.61218 A 6.75 6.75 0 1 1  60,388.61218 A 6.75 6.75 0 1 1  73.5 388.61218 z"
       sodipodi:ry="6.75"
       sodipodi:rx="6.75"
       sodipodi:cy="388.61218"
       sodipodi:cx="66.75"
       id="path4006"
       style="opacity:1;fill:#ff8d00;fill-opacity:1;stroke:none;stroke-width:3.00099993;stroke-linecap:round;stroke-linejoin:round;stroke-miterlimit:4;stroke-dasharray:none;stroke-opacity:1"
       sodipodi:type="arc" />
    <path
       sodipodi:type="arc"
       style="opacity:1;fill:#ff8d00;fill-opacity:1;stroke:none;stroke-width:3.00099993;stroke-linecap:round;stroke-linejoin:round;stroke-miterlimit:4;stroke-dasharray:none;stroke-opacity:1"
       id="path4008"
       sodipodi:cx="66.75"
       sodipodi:cy="388.61218"
       sodipodi:rx="6.75"
       sodipodi:ry="6.75"
       d="M 73.5 388.61218 A 6.75 6.75 0 1 1  60,388.61218 A 6.75 6.75 0 1 1  73.5 388.61218 z"
       transform="translate(216,93)" />
    <path
       transform="translate(216,77)"
       d="M 73.5 388.61218 A 6.75 6.75 0 1 1  60,388.61218 A 6.75 6.75 0 1 1  73.5 388.61218 z"
       sodipodi:ry="6.75"
       sodipodi:rx="6.75"
       sodipodi:cy="388.61218"
       sodipodi:cx="66.75"
       id="path4010"
       style="opacity:1;fill:#ff8d00;fill-opacity:1;stroke:none;stroke-width:3.00099993;stroke-linecap:round;stroke-linejoin:round;stroke-miterlimit:4;stroke-dasharray:none;stroke-opacity:1"
       sodipodi:type="arc" />
    <path
       sodipodi:type="arc"
       style="opacity:1;fill:#ff8d00;fill-opacity:1;stroke:none;stroke-width:3.00099993;stroke-linecap:round;stroke-linejoin:round;stroke-miterlimit:4;stroke-dasharray:none;stroke-opacity:1"
       id="path4012"
       sodipodi:cx="66.75"
       sodipodi:cy="388.61218"
       sodipodi:rx="6.75"
       sodipodi:ry="6.75"
       d="M 73.5 388.61218 A 6.75 6.75 0 1 1  60,388.61218 A 6.75 6.75 0 1 1  73.5 388.61218 z"
       transform="translate(216,61)" />
    <path
       transform="translate(216,45)"
       d="M 73.5 388.61218 A 6.75 6.75 0 1 1  60,388.61218 A 6.75 6.75 0 1 1  73.5 388.61218 z"
       sodipodi:ry="6.75"
       sodipodi:rx="6.75"
       sodipodi:cy="388.61218"
       sodipodi:cx="66.75"
       id="path4014"
       style="opacity:1;fill:#ff8d00;fill-opacity:1;stroke:none;stroke-width:3.00099993;stroke-linecap:round;stroke-linejoin:round;stroke-miterlimit:4;stroke-dasharray:none;stroke-opacity:1"
       sodipodi:type="arc" />
    <path
       sodipodi:type="arc"
       style="opacity:1;fill:#ff8d00;fill-opacity:1;stroke:none;stroke-width:3.00099993;stroke-linecap:round;stroke-linejoin:round;stroke-miterlimit:4;stroke-dasharray:none;stroke-opacity:1"
       id="path4016"
       sodipodi:cx="66.75"
       sodipodi:cy="388.61218"
       sodipodi:rx="6.75"
       sodipodi:ry="6.75"
       d="M 73.5 388.61218 A 6.75 6.75 0 1 1  60,388.61218 A 6.75 6.75 0 1 1  73.5 388.61218 z"
       transform="translate(216,29)" />
    <path
       transform="translate(198,11)"
       d="M 73.5 388.61218 A 6.75 6.75 0 1 1  60,388.61218 A 6.75 6.75 0 1 1  73.5 388.61218 z"
       sodipodi:ry="6.75"
       sodipodi:rx="6.75"
       sodipodi:cy="388.61218"
       sodipodi:cx="66.75"
       id="path4018"
       style="opacity:1;fill:#ff8d00;fill-opacity:1;stroke:none;stroke-width:3.00099993;stroke-linecap:round;stroke-linejoin:round;stroke-miterlimit:4;stroke-dasharray:none;stroke-opacity:1"
       sodipodi:type="arc" />
    <path
       sodipodi:type="arc"
       style="opacity:1;fill:#ff8d00;fill-opacity:1;stroke:none;stroke-width:3.00099993;stroke-linecap:round;stroke-linejoin:round;stroke-miterlimit:4;stroke-dasharray:none;stroke-opacity:1"
       id="path4020"
       sodipodi:cx="66.75"
       sodipodi:cy="388.61218"
       sodipodi:rx="6.75"
       sodipodi:ry="6.75"
       d="M 73.5 388.61218 A 6.75 6.75 0 1 1  60,388.61218 A 6.75 6.75 0 1 1  73.5 388.61218 z"
       transform="translate(182,11)" />
    <path
       transform="translate(166,11)"
       d="M 73.5 388.61218 A 6.75 6.75 0 1 1  60,388.61218 A 6.75 6.75 0 1 1  73.5 388.61218 z"
       sodipodi:ry="6.75"
       sodipodi:rx="6.75"
       sodipodi:cy="388.61218"
       sodipodi:cx="66.75"
       id="path4022"
       style="opacity:1;fill:#ff8d00;fill-opacity:1;stroke:none;stroke-width:3.00099993;stroke-linecap:round;stroke-linejoin:round;stroke-miterlimit:4;stroke-dasharray:none;stroke-opacity:1"
       sodipodi:type="arc" />
    <path
       sodipodi:type="arc"
       style="opacity:1;fill:#ff8d00;fill-opacity:1;stroke:none;stroke-width:3.00099993;stroke-linecap:round;stroke-linejoin:round;stroke-miterlimit:4;stroke-dasharray:none;stroke-opacity:1"
       id="path4024"
       sodipodi:cx="66.75"
       sodipodi:cy="388.61218"
       sodipodi:rx="6.75"
       sodipodi:ry="6.75"
       d="M 73.5 388.61218 A 6.75 6.75 0 1 1  60,388.61218 A 6.75 6.75 0 1 1  73.5 388.61218 z"
       transform="translate(150,11)" />
    <path
       transform="translate(134,11)"
       d="M 73.5 388.61218 A 6.75 6.75 0 1 1  60,388.61218 A 6.75 6.75 0 1 1  73.5 388.61218 z"
       sodipodi:ry="6.75"
       sodipodi:rx="6.75"
       sodipodi:cy="388.61218"
       sodipodi:cx="66.75"
       id="path4026"
       style="opacity:1;fill:#ff8d00;fill-opacity:1;stroke:none;stroke-width:3.00099993;stroke-linecap:round;stroke-linejoin:round;stroke-miterlimit:4;stroke-dasharray:none;stroke-opacity:1"
       sodipodi:type="arc" />
    <text
       xml:space="preserve"
       style="font-size:92.93235016px;font-style:normal;font-weight:normal;line-height:125%;fill:url(#linearGradient3820);fill-opacity:1.0;stroke:white;stroke-width:3;stroke-linecap:butt;stroke-linejoin:miter;stroke-opacity:1;font-family:Bitstream Vera Sans;stroke-miterlimit:4;stroke-dasharray:none"
       x="211.55693"
       y="482.36218"
       id="text6692"
       sodipodi:linespacing="125%"><tspan
         sodipodi:role="line"
         id="tspan6694"
         x="211.55693"
         y="482.36218"
         style="font-size:92.93235016px;font-style:normal;font-variant:normal;font-weight:bold;font-stretch:normal;text-align:start;line-height:125%;writing-mode:lr-tb;text-anchor:start;font-family:MgOpen Modata;fill:url(#linearGradient3820);fill-opacity:1.0;stroke:white;stroke-opacity:1;stroke-width:3;stroke-miterlimit:4;stroke-dasharray:none">h</tspan></text>
    <path
       style="opacity:0.98999999;fill:#68b8df;fill-opacity:1;stroke:#ffffff;stroke-width:2;stroke-linecap:butt;stroke-linejoin:miter;stroke-miterlimit:4;stroke-dasharray:none;stroke-dashoffset:0;stroke-opacity:1"
       d="M 69,393.36218 L 69,411.36218 C 69,416.90218 73.46,421.36218 79,421.36218 L 158,421.36218 C 163.54,421.36218 168,416.90218 168,411.36218 L 168,393.36218 L 69,393.36218 z "
       id="rect1307" />
    <text
       xml:space="preserve"
       style="font-size:18.42011642px;font-style:normal;font-variant:normal;font-weight:bold;font-stretch:normal;text-align:start;line-height:125%;writing-mode:lr-tb;text-anchor:start;fill:#ffffff;fill-opacity:1;stroke:none;stroke-width:1px;stroke-linecap:butt;stroke-linejoin:miter;stroke-opacity:1;font-family:MgOpen Modata"
       x="79.993591"
       y="411.84705"
       id="text3065"
       sodipodi:linespacing="125%"><tspan
         sodipodi:role="line"
         id="tspan3067"
         x="79.993591"
         y="411.84705">drag me!</tspan></text>
  </g>
</svg>
