<?xml version="1.0" encoding="UTF-8" standalone="no"?>
<!-- Created with Inkscape (http://www.inkscape.org/) -->
<svg
   xmlns:dc="http://purl.org/dc/elements/1.1/"
   xmlns:cc="http://web.resource.org/cc/"
   xmlns:rdf="http://www.w3.org/1999/02/22-rdf-syntax-ns#"
   xmlns:svg="http://www.w3.org/2000/svg"
   xmlns="http://www.w3.org/2000/svg"
   xmlns:sodipodi="http://inkscape.sourceforge.net/DTD/sodipodi-0.dtd"
   xmlns:inkscape="http://www.inkscape.org/namespaces/inkscape"
   width="744.09448819"
   height="1052.3622047"
   id="svg2"
   sodipodi:version="0.32"
   inkscape:version="0.43"
   inkscape:export-filename="/home/jasbur/heyudo/heyudosvn/public/images/post_no_pic.png"
   inkscape:export-xdpi="90"
   inkscape:export-ydpi="90"
   sodipodi:docbase="/home/jasbur/heyudo/heyudosvn/assets"
   sodipodi:docname="post_no_pic.svg">
  <defs
     id="defs4" />
  <sodipodi:namedview
     id="base"
     pagecolor="#ffffff"
     bordercolor="#666666"
     borderopacity="1.0"
     inkscape:pageopacity="0.0"
     inkscape:pageshadow="2"
     inkscape:zoom="2"
     inkscape:cx="375"
     inkscape:cy="569.34912"
     inkscape:document-units="px"
     inkscape:current-layer="layer1"
     inkscape:window-width="1072"
     inkscape:window-height="835"
     inkscape:window-x="10"
     inkscape:window-y="73" />
  <metadata
     id="metadata7">
    <rdf:RDF>
      <cc:Work
         rdf:about="">
        <dc:format>image/svg+xml</dc:format>
        <dc:type
           rdf:resource="http://purl.org/dc/dcmitype/StillImage" />
      </cc:Work>
    </rdf:RDF>
  </metadata>
  <g
     inkscape:label="Layer 1"
     inkscape:groupmode="layer"
     id="layer1">
    <rect
       style="opacity:1;fill:#ffffff;fill-opacity:1;stroke:none;stroke-width:3.20000005;stroke-linecap:round;stroke-linejoin:miter;stroke-miterlimit:4;stroke-dasharray:none;stroke-dashoffset:0;stroke-opacity:1"
       id="rect5758"
       width="400"
       height="300"
       x="142"
       y="422.86218" />
    <rect
       style="opacity:1;fill:#f6f6f6;fill-opacity:1;stroke:#52adda;stroke-width:3.96643639;stroke-linecap:butt;stroke-linejoin:miter;stroke-miterlimit:4;stroke-dasharray:none;stroke-dashoffset:0;stroke-opacity:1"
       id="rect1307"
       width="396.00708"
       height="296.03357"
       x="143.98996"
       y="425.34186"
       ry="10"
       rx="10" />
    <path
       style="fill:#dfdfdf;fill-opacity:1;fill-rule:nonzero;stroke:none;stroke-width:1px;stroke-linecap:butt;stroke-linejoin:miter;stroke-opacity:1"
       id="path3057"
       d="M 162.13923,669.98868 C 171.39369,670.08083 180.58516,668.09351 189.72367,666.72472 C 198.67798,665.92717 207.62263,664.2802 216.02084,661.07638 C 231.87662,653.49992 201.29731,671.10621 215.99884,661.55112 C 223.98019,654.97622 233.4439,652.33814 242.51061,648.16278 C 216.69652,661.90368 248.23968,644.90899 257.87142,640.49157 C 264.15433,637.70239 270.72909,636.04273 277.45588,634.82793 C 285.19006,634.01366 292.98881,634.03079 300.75848,634.07986 C 307.43913,633.623 313.84243,634.43973 320.29088,636.0555 C 326.07348,637.6103 331.81744,639.27791 337.56547,640.96107 C 343.74423,642.85039 350.01882,644.42011 356.35149,645.68074 C 363.29722,646.32196 370.19035,647.49209 377.15052,647.95909 C 383.5507,648.32349 389.96658,648.47523 395.93291,646.03115 C 376.06331,658.23428 392.85126,647.6241 400.07689,641.25239 C 405.16741,635.57668 411.57035,631.3927 417.59679,626.80741 C 424.46128,622.16194 430.77085,616.79807 437.65128,612.17889 C 456.09649,606.31981 444.07329,598.82906 468.68247,597.03144 C 475.98974,596.79785 483.19177,598.32915 490.14351,600.45136 C 496.51021,602.53463 503.00716,604.28472 509.32999,606.49606 C 514.64798,608.83283 520.22985,610.48588 525.67994,612.46212 C 528.63985,613.06671 531.7105,613.09238 534.7021,613.26199 L 522.69528,621.73562 C 519.63315,621.61986 516.5302,621.63731 513.57376,620.71169 C 508.12657,618.67716 502.60059,616.86374 497.18832,614.73799 C 490.90775,612.50016 484.48839,610.63863 478.13653,608.61539 C 471.237,606.55235 464.10432,605.22909 456.87267,605.71295 C 449.91085,606.5909 439.87684,612.96068 459.94361,601.50739 C 465.5166,598.32656 437.78373,614.45946 443.32086,611.21659 C 463.27828,599.52835 455.3389,604.01505 451.1342,606.89612 C 444.21267,611.49169 437.86139,616.80542 431.00935,621.49939 C 424.98674,625.94483 418.64851,630.19311 413.5599,635.71822 C 404.94017,643.6713 394.88243,649.72762 384.48049,655.111 C 378.21923,656.8671 371.86414,656.90503 365.36018,656.41899 C 358.35774,655.88366 351.40563,654.76358 344.41714,654.05382 C 338.08302,652.67065 331.78731,651.13011 325.59763,649.17981 C 319.82548,647.56618 314.06728,645.91657 308.29436,644.31378 C 301.91625,642.85692 295.54605,642.23948 288.98477,642.63166 C 281.2683,642.66201 273.49618,642.37589 265.84663,643.57024 C 259.16047,644.77057 252.67294,646.79538 246.43695,649.51501 C 214.62622,664.40858 270.31578,637.02155 231.04893,657.26733 C 217.58913,663.41012 219.91257,660.69196 229.66143,656.29812 C 221.47965,661.23473 213.6237,666.98981 204.51983,670.13749 C 195.97669,672.90266 187.09907,674.4703 178.16563,675.37201 C 168.85844,676.79041 159.51639,678.42314 150.10001,678.73568 L 162.13923,669.98868 z " />
    <path
       style="fill:#dfdfdf;fill-opacity:1;fill-rule:nonzero;stroke:none;stroke-width:1px;stroke-linecap:butt;stroke-linejoin:miter;stroke-opacity:1"
       id="path3059"
       d="M 454.86077,452.73568 C 448.92993,452.2893 443.08744,453.14171 437.30913,454.38097 C 418.48154,462.44889 445.25312,447.65951 436.2549,453.86382 C 432.55331,456.81912 429.95994,460.76363 427.65096,464.84214 C 425.25583,468.66018 423.85546,472.88851 422.68071,477.19276 C 421.33065,481.44639 421.41846,485.64643 422.28882,489.94551 C 423.00854,494.52179 424.44695,498.23773 427.49993,501.68876 C 431.23767,506.02941 436.04285,508.43166 441.24339,510.5652 C 447.86678,513.11134 454.88042,514.28435 461.79257,515.72974 C 467.25745,516.55358 472.64615,515.43961 477.94748,514.13516 C 495.42779,506.46282 465.12545,525.8205 479.96586,513.48616 C 483.20655,510.45118 485.53157,506.61778 487.16457,502.57067 C 488.52262,498.11046 488.45364,493.4824 488.47385,488.87424 C 488.8532,484.09806 487.27669,479.68006 485.84864,475.2226 C 484.91366,471.07755 482.79398,467.60378 480.51319,464.09534 C 477.99883,460.36397 474.06287,458.08807 470.31599,455.75733 C 466.56081,453.20138 462.07132,452.9528 457.78082,451.96062 C 457.03329,451.60008 456.21957,451.42102 455.4414,451.15206 L 467.6009,442.86089 C 468.34548,443.09067 469.06732,443.39659 469.83415,443.5501 C 474.27941,444.52937 478.84692,445.09055 482.65674,447.81942 C 486.52221,450.3093 490.61821,452.67713 493.16799,456.62445 C 495.51387,460.23809 497.74504,463.83099 498.69123,468.10098 C 500.1206,472.71357 501.88999,477.27905 501.54418,482.21321 C 501.54348,486.87826 501.72167,491.61706 500.37464,496.1372 C 499.14394,500.62722 496.68202,504.47057 493.5263,507.96931 C 485.65626,514.70441 476.72288,520.94409 466.39272,522.95133 C 460.91116,524.19852 455.38116,525.2734 449.7809,524.11951 C 442.86923,522.51666 435.85016,521.27379 429.21678,518.65916 C 423.78783,516.45278 418.9231,513.90675 415.06182,509.35564 C 411.8355,505.69481 410.08104,501.84581 409.38393,496.96664 C 408.38483,492.46563 408.11951,488.04006 409.43077,483.52517 C 410.49201,479.07634 411.96814,474.75821 414.26531,470.76393 C 416.64664,466.63526 419.06207,462.51393 422.63337,459.296 C 430.47319,453.32851 439.18074,447.7478 448.88322,445.56233 C 454.84741,444.49012 460.82961,443.8497 466.89999,443.98868 L 454.86077,452.73568 z " />
    <path
       style="fill:#dfdfdf;fill-opacity:1;fill-rule:nonzero;stroke:none;stroke-width:1px;stroke-linecap:butt;stroke-linejoin:miter;stroke-opacity:1"
       id="path4841"
       d="M 178.3106,449.41839 C 178.61016,448.49726 175.43934,451.07238 176.12748,450.61 C 176.88554,450.10063 177.7128,449.70262 178.5004,449.24025 C 179.20688,448.82551 177.08284,450.06189 176.37086,450.46712 C 176.11744,450.61135 176.82852,450.10333 177.03308,449.89552 C 177.87726,449.0379 178.63843,448.09398 179.43301,447.19091 C 180.67719,445.81601 182.51316,443.92049 184.37983,444.90102 C 185.14666,445.66421 185.76946,446.5703 186.28909,447.51667 C 186.57041,448.42849 187.11081,449.08017 187.8194,449.6781 C 188.79129,450.33787 189.65512,449.95687 190.6473,449.52768 C 192.18891,448.97505 191.34424,449.04911 195.41427,446.13543 C 198.4188,443.85866 201.45112,443.65381 205.04748,443.81502 C 206.53356,444.01788 207.53461,445.40118 208.1346,446.69073 C 208.45197,447.73513 208.47568,448.72985 209.24988,449.53828 C 210.84344,450.65806 212.90961,450.88716 214.79807,451.13866 C 217.46876,451.51756 219.83903,450.21107 222.22371,449.18161 C 227.84408,446.8464 226.63105,446.59726 233.10411,443.6782 C 236.55548,441.68289 239.10821,443.15403 242.08442,445.35619 C 244.55815,447.70788 246.9841,450.53172 248.47957,453.64131 C 249.00966,455.1692 248.23261,456.70255 247.59358,458.07848 C 246.8707,460.12325 244.64447,460.65022 242.67917,460.66078 C 241.44591,460.44438 240.26996,459.97126 239.05883,459.64306 C 239.18198,459.03841 236.67683,460.09176 237.21322,459.7867 C 237.84755,459.42592 239.74062,458.3263 239.11123,458.69565 C 237.50432,459.63865 234.56648,461.30298 238.49159,459.07146 C 237.33535,459.82082 237.11193,460.61528 237.57505,461.86877 C 238.22179,463.02496 239.00698,464.09818 239.78231,465.171 C 240.88733,466.43993 240.96221,467.93205 241.09799,469.52474 C 241.21353,471.45261 239.40612,472.74626 238.01547,473.78641 C 234.23838,476.57887 231.64143,475.61625 227.72338,473.58819 C 224.56303,471.47731 221.85202,468.60438 219.51759,465.60739 C 218.22706,463.41828 216.10341,464.91373 214.1225,465.60013 C 209.99745,467.99398 216.45008,463.20625 212.82174,466.56208 C 211.8043,467.51997 211.0007,468.67089 210.15485,469.77573 C 209.17726,470.9468 208.16818,472.10967 206.90072,472.9722 C 203.41513,475.47521 200.47294,474.87698 196.54971,473.58376 C 194.03515,472.9439 192.38196,471.5277 191.06993,469.40469 C 190.5541,468.35441 189.85129,467.43546 189.11455,466.53506 C 188.14593,465.59024 187.00455,464.87728 185.74511,464.38693 C 184.47754,463.89179 183.22259,464.46605 181.99184,464.81236 C 184.11272,463.16266 183.71898,464.10652 181.72997,465.60025 C 179.86916,466.94393 177.96541,467.80863 175.73959,468.08928 C 173.77458,468.12774 171.64833,468.46692 169.85825,467.49254 C 168.79232,466.86212 168.02318,465.99154 167.52653,464.88817 C 167.31999,463.99395 167.41048,463.25172 167.83135,462.46771 C 169.07085,461.1343 170.76793,460.41717 172.33585,459.56738 C 173.06643,459.25294 173.8374,459.09133 174.58521,458.82722 C 177.85585,457.00916 172.68847,460.35991 174.68049,458.72405 C 175.35967,458.08455 175.7062,457.26018 175.97726,456.38744 C 176.18458,455.61009 176.42054,454.84225 176.5547,454.04922 C 176.60742,453.2283 176.60149,452.41338 176.46278,451.60666 C 176.3665,451.36437 176.31685,451.10859 176.24887,450.85831 L 178.56272,449.58977 C 178.62908,449.84101 178.68102,450.09704 178.77362,450.34134 C 178.95632,451.17528 178.94637,452.01861 178.90868,452.87285 C 178.82481,453.70094 178.53871,454.46479 178.36126,455.27189 C 178.0861,456.15796 177.76877,457.03863 177.10795,457.71678 C 175.80765,458.94737 174.13249,459.69772 172.51727,460.44601 C 171.75751,460.67666 170.9948,460.8862 170.25831,461.18673 C 170.39324,461.10442 172.95177,459.38051 170.25375,461.44057 C 169.76478,462.13991 169.66251,462.76547 169.83982,463.63333 C 170.29881,464.68545 171.01104,465.51103 172.04718,466.07583 C 173.87159,466.86268 175.86495,466.73414 177.81722,466.53941 C 179.36137,466.2942 182.55808,464.65395 178.71299,466.90071 C 178.52018,467.01337 179.46837,466.42425 179.28324,466.54913 C 180.93003,465.45488 181.96411,463.70851 184.06727,463.2122 C 185.34427,462.86754 186.60683,462.34876 187.89781,462.94272 C 189.17365,463.4711 190.39527,464.19337 191.3564,465.19499 C 192.0967,466.10936 192.82668,467.03152 193.33675,468.09956 C 194.55856,470.18232 196.13173,471.56415 198.55257,472.22427 C 200.31387,472.81024 202.1642,473.32096 204.03902,473.28658 C 204.86383,473.27146 207.1637,472.32932 206.45552,472.75243 C 205.79796,473.14529 205.13215,473.52419 204.47047,473.91008 C 205.78571,473.11984 206.79055,471.93402 207.78891,470.78676 C 208.63372,469.68621 209.40914,468.52355 210.4107,467.55442 C 212.04835,466.01449 213.93903,464.74732 216.1065,464.05744 C 218.25116,463.35121 220.41055,461.87369 221.72023,464.30387 C 223.96116,467.32465 226.58414,470.2288 229.78023,472.24016 C 231.36292,473.07557 232.99531,473.80684 234.77553,474.09166 C 235.55727,474.21673 237.80797,473.41934 237.1372,473.83985 C 236.64541,474.14815 234.34821,475.48528 235.63632,474.72274 C 237.01784,473.75561 238.72342,472.54386 238.7884,470.72211 C 238.67744,469.18136 238.60784,467.72177 237.56734,466.48136 C 236.77347,465.39962 235.92642,464.35576 235.30841,463.15593 C 234.7368,461.86591 234.87974,460.84385 236.08158,460.01345 C 239.41376,458.04468 236.94401,457.67826 241.22418,458.14709 C 242.39626,458.51386 243.56218,458.99626 244.78369,459.13112 C 249.34856,459.10398 242.76217,461.64989 245.22527,459.15672 C 245.87813,457.83057 246.61424,456.40988 246.21774,454.90408 C 244.92543,451.75289 242.44058,448.97087 239.99042,446.67945 C 237.1017,444.44534 234.50729,443.32043 231.17484,445.2091 C 226.90816,447.14259 226.65153,447.81909 220.31972,450.68707 C 217.86107,451.74655 215.47271,453.10429 212.71811,452.60918 C 210.7869,452.30641 208.61522,452.08664 206.99984,450.91499 C 206.23396,450.05318 206.1424,449.06344 205.86333,447.96908 C 205.24908,446.76097 204.42287,445.45758 202.95554,445.31621 C 200.51461,445.16096 194.16562,446.51247 197.79436,445.20089 C 194.78374,447.25497 192.08234,449.81552 188.61196,451.13822 C 187.52798,451.57939 186.586,451.82967 185.58631,451.07347 C 184.85697,450.45003 184.31817,449.7474 184.00867,448.81795 C 183.51619,447.91085 182.93996,447.02348 182.17466,446.32362 C 178.62197,445.32472 185.00618,444.14503 181.78947,446.20016 C 178.11798,450.26539 177.67247,450.64626 176.15127,450.98723 L 178.3106,449.41839 z " />
    <path
       style="fill:#dfdfdf;fill-opacity:1;fill-rule:nonzero;stroke:none;stroke-width:1px;stroke-linecap:butt;stroke-linejoin:miter;stroke-opacity:1"
       id="path4853"
       d="M 194.00267,457.68949 C 193.92587,458.421 194.17307,459.1001 194.46197,459.75443 C 194.94483,460.47662 195.66424,460.9546 196.38985,461.40667 C 197.12081,461.84089 197.88646,462.13431 198.70745,462.34264 C 199.47147,462.56493 200.23039,462.67837 201.02408,462.70288 C 201.85969,462.70437 202.6953,462.70214 203.53091,462.70198 C 206.43257,461.55757 201.22763,464.40901 203.20321,463.12337 C 203.7246,462.7445 204.15469,462.25921 204.61293,461.80899 C 205.17912,461.34634 205.65837,460.81911 206.08494,460.22843 L 208.50924,459.17997 C 208.0729,459.76175 207.65894,460.36293 207.05059,460.79091 C 206.5844,461.24618 206.15202,461.7329 205.65942,462.16041 C 204.35676,463.04972 203.00939,464.0973 201.40227,464.24858 C 200.56549,464.24886 199.72866,464.25362 198.89191,464.24606 C 198.08822,464.20029 197.3123,464.05742 196.53813,463.82883 C 195.70395,463.60546 194.92662,463.2884 194.18782,462.83441 C 193.43314,462.34158 192.67573,461.83727 192.17289,461.06983 C 191.87502,460.38159 191.61723,459.66517 191.62451,458.90122 L 194.00267,457.68949 z " />
    <path
       style="fill:#dfdfdf;fill-opacity:1;fill-rule:nonzero;stroke:none;stroke-width:1px;stroke-linecap:butt;stroke-linejoin:miter;stroke-opacity:1"
       id="path4855"
       d="M 222.34117,456.61334 C 222.64982,456.81533 223.23244,457.37729 223.59377,457.75489 C 224.12827,458.21784 224.84767,458.29883 225.50258,458.51459 C 226.30569,458.67024 227.10514,458.74345 227.92378,458.75755 C 228.68149,459.01471 229.3232,458.87261 230.04236,458.63002 C 231.50658,458.05259 233.36113,456.94385 229.77879,458.97552 C 235.60889,454.53268 228.22065,460.97041 231.18014,457.82257 C 231.52568,457.33696 231.93018,456.8982 232.32867,456.45618 L 234.74745,455.44502 C 234.34979,455.87691 233.9648,456.31545 233.59927,456.76996 C 232.48709,458.1291 227.38255,461.0154 232.23986,458.01804 C 230.83332,458.83796 229.49049,459.68518 227.97562,460.26633 C 227.23003,460.44703 226.55032,460.50071 225.79364,460.302 C 224.96222,460.28037 224.1454,460.17733 223.33092,460.00965 C 222.63099,459.7786 221.88122,459.6707 221.34079,459.12755 C 220.8959,458.67632 220.39669,458.27634 219.96301,457.82507 L 222.34117,456.61334 z " />
    <path
       style="fill:#dfdfdf;fill-opacity:1;fill-rule:nonzero;stroke:none;stroke-width:1px;stroke-linecap:butt;stroke-linejoin:miter;stroke-opacity:1"
       id="path4857"
       d="M 177.81398,459.7551 C 177.92072,458.83718 179.78214,458.47989 180.26779,458.16151 C 180.96105,457.70703 177.40884,459.84023 178.11122,459.39996 C 184.98291,455.0926 173.48318,462.23041 181.28408,457.48337 C 181.93072,457.08988 179.96968,458.23455 179.31249,458.61014 C 188.24305,454.39629 174.12389,459.70591 183.34948,456.32779 C 184.15454,456.20129 184.98217,456.21112 185.78606,456.31313 C 186.45949,456.59503 187.0531,457.00572 187.52438,457.55068 C 187.73363,457.85371 187.94392,458.15577 188.1516,458.4602 L 185.87598,459.79583 C 185.66364,459.49016 185.44881,459.18671 185.24003,458.87877 C 184.77773,458.43509 184.27069,458.00629 183.63267,457.82391 C 182.84607,457.78529 182.03317,457.72088 181.26809,457.95 C 178.25513,459.18356 187.77526,454.35034 180.31857,458.40344 C 179.61346,458.7867 183.73261,456.19674 181.77244,457.66472 C 180.92693,458.15489 180.08399,458.6495 179.23592,459.13521 C 178.5354,459.53642 180.62961,458.32006 181.32791,457.91498 C 181.51271,457.80778 180.98755,458.17492 180.80379,458.2839 C 180.01561,458.75138 179.19031,459.16078 178.43716,459.68284 C 177.75998,460.15223 181.28937,458.03141 180.5752,458.44235 C 179.78288,458.89827 179.02052,459.40941 178.20267,459.81777 C 177.49807,460.16958 180.97783,458.59742 180.19214,458.54336 L 177.81398,459.7551 z " />
    <path
       style="fill:#dfdfdf;fill-opacity:1;fill-rule:nonzero;stroke:none;stroke-width:1px;stroke-linecap:butt;stroke-linejoin:miter;stroke-opacity:1"
       id="path4859"
       d="M 196.10845,454.37437 C 196.33363,453.49931 198.71136,452.65725 198.71534,452.65483 C 199.40814,452.23281 195.87289,454.21552 196.60716,453.87067 C 198.25563,453.09647 198.89996,452.44044 200.44552,452.11059 C 201.27947,451.89627 202.15276,451.9188 203.00215,451.97352 C 203.86369,452.10082 204.60447,452.55701 205.3427,452.99001 C 206.06596,453.42531 206.83022,453.7426 207.62457,454.01033 C 208.21173,454.26807 208.76747,454.55654 209.28511,454.9292 C 209.75051,455.36945 210.25657,455.75718 210.73404,456.18324 C 211.22027,456.6554 211.63563,457.19341 212.08937,457.6956 C 212.54699,458.14746 212.83508,458.72153 213.09633,459.29476 C 213.14857,459.42408 213.18734,459.55806 213.23282,459.68964 L 210.91748,460.95753 C 210.87065,460.82302 210.83558,460.68396 210.77681,460.55346 C 210.5173,460.0353 210.2805,459.48423 209.83673,459.07852 C 209.3886,458.56858 208.97918,458.02534 208.47917,457.56283 C 207.99988,457.14881 207.50521,456.75516 207.03985,456.32493 C 206.53051,456.00629 206.00571,455.71161 205.44051,455.49373 C 204.63699,455.21223 203.88056,454.8497 203.14628,454.41579 C 202.41515,454.02018 201.70396,453.57137 200.8552,453.49409 C 200.01698,453.48541 199.17044,453.46077 198.3576,453.70564 C 197.8918,453.81374 196.57769,454.37811 196.98809,454.1327 C 197.67536,453.72172 199.76513,452.5367 199.06512,452.92559 C 198.25685,453.37462 197.47662,453.87346 196.66324,454.31317 C 196.03103,454.65493 199.182,452.98117 198.48661,453.16264 L 196.10845,454.37437 z " />
    <path
       d="M 280.88661,508.58417 C 281.06448,507.91592 279.18174,509.7841 279.59034,509.44865 C 280.04045,509.07912 280.53166,508.79037 280.99931,508.45494 C 281.4188,508.15405 280.1576,509.05101 279.73485,509.345 C 279.58438,509.44963 280.0066,509.08108 280.12806,508.93032 C 280.62931,508.30814 281.08127,507.62335 281.55307,506.9682 C 282.29183,505.97074 283.38198,504.5956 284.49036,505.30694 C 284.94568,505.86062 285.31548,506.51796 285.62402,507.20453 C 285.79106,507.86603 286.11194,508.3388 286.53268,508.77258 C 287.10976,509.25123 287.62268,508.97482 288.21181,508.66346 C 289.12718,508.26254 288.62563,508.31627 291.04231,506.20247 C 292.82631,504.55074 294.62682,504.40213 296.76224,504.51908 C 297.64464,504.66625 298.23903,505.6698 298.59529,506.60533 C 298.78374,507.36301 298.79782,508.08465 299.25751,508.67115 C 300.20373,509.48352 301.43056,509.64972 302.55188,509.83218 C 304.13766,510.10706 305.54506,509.15924 306.96102,508.41239 C 310.29824,506.71826 309.57798,506.53752 313.42151,504.41982 C 315.47084,502.97228 316.98658,504.03955 318.75377,505.63716 C 320.2226,507.34324 321.66307,509.39186 322.55103,511.64778 C 322.86579,512.75623 322.4044,513.86863 322.02496,514.86683 C 321.59573,516.35026 320.27386,516.73256 319.10692,516.74022 C 318.37464,516.58323 317.67639,516.23999 316.95726,516.00189 C 317.03038,515.56323 315.54289,516.32741 315.86138,516.1061 C 316.23803,515.84436 317.36208,515.04662 316.98837,515.31457 C 316.03423,515.99869 314.28982,517.20612 316.62044,515.58721 C 315.9339,516.13085 315.80124,516.70721 316.07623,517.61658 C 316.46024,518.45537 316.92647,519.23396 317.38684,520.01226 C 318.04297,520.93283 318.08743,522.01533 318.16805,523.17078 C 318.23666,524.5694 317.16347,525.5079 316.33774,526.2625 C 314.095,528.28836 312.55301,527.59 310.22658,526.1187 C 308.35005,524.58732 306.74032,522.50308 305.3542,520.32885 C 304.58792,518.74071 303.32695,519.82562 302.15074,520.32358 C 299.7014,522.06025 303.5328,518.58689 301.37839,521.02145 C 300.77426,521.71637 300.2971,522.55133 299.79486,523.35287 C 299.21439,524.20244 298.61523,525.04608 297.86265,525.67182 C 295.793,527.48768 294.04601,527.05368 291.7165,526.11549 C 290.22342,525.65129 289.2418,524.62387 288.46276,523.08369 C 288.15647,522.32174 287.73916,521.65506 287.3017,521.00185 C 286.72656,520.31641 286.04884,519.79917 285.30102,519.44344 C 284.54837,519.08423 283.80322,519.50084 283.07243,519.75208 C 284.33175,518.55526 284.09796,519.24001 282.91694,520.32367 C 281.81204,521.29847 280.68165,521.92579 279.36002,522.12939 C 278.19325,522.15729 276.93074,522.40336 275.86784,521.69647 C 275.23492,521.23912 274.77822,520.60754 274.48333,519.80707 C 274.36069,519.15834 274.41442,518.61987 274.66432,518.0511 C 275.4003,517.08374 276.40798,516.56349 277.33897,515.94699 C 277.77277,515.71887 278.23055,515.60163 278.67458,515.41002 C 280.6166,514.09107 277.54835,516.52195 278.73115,515.33517 C 279.13443,514.87123 279.34019,514.27318 279.50114,513.64003 C 279.62424,513.07608 279.76435,512.51903 279.84401,511.94371 C 279.87531,511.34816 279.87179,510.75696 279.78943,510.1717 C 279.73226,509.99593 279.70278,509.81037 279.66241,509.62879 L 281.03632,508.7085 C 281.07572,508.89077 281.10656,509.07651 281.16154,509.25375 C 281.27002,509.85875 281.26412,510.47056 281.24174,511.09029 C 281.19194,511.69104 281.02206,512.2452 280.91669,512.83073 C 280.75331,513.47355 280.56489,514.11245 280.17251,514.60443 C 279.40043,515.49719 278.40577,516.04154 277.44669,516.58441 C 276.99557,516.75174 276.54269,516.90375 276.10538,517.12178 C 276.1855,517.06207 277.70469,515.81142 276.10268,517.30593 C 275.81234,517.81329 275.75161,518.26711 275.8569,518.89672 C 276.12943,519.66001 276.55233,520.25894 277.16757,520.66869 C 278.25085,521.23953 279.43445,521.14628 280.59366,521.005 C 281.51053,520.82711 283.40865,519.63715 281.12554,521.26712 C 281.01106,521.34885 281.57407,520.92146 281.46414,521.01206 C 282.44196,520.21821 283.05597,518.95126 284.30477,518.5912 C 285.06302,518.34116 285.81269,517.9648 286.57924,518.3957 C 287.3368,518.77903 288.06216,519.30302 288.63285,520.02966 C 289.07242,520.69301 289.50587,521.36202 289.80873,522.13685 C 290.53421,523.64784 291.46831,524.65032 292.90574,525.12921 C 293.95156,525.55432 295.05023,525.92483 296.16345,525.89989 C 296.6532,525.88892 298.0188,525.20543 297.5983,525.51238 C 297.20786,525.79739 296.81252,526.07227 296.41963,526.35222 C 297.20059,525.77893 297.79723,524.91865 298.39003,524.08634 C 298.89166,523.28792 299.35208,522.44444 299.94678,521.74137 C 300.91917,520.62419 302.0418,519.70489 303.32879,519.2044 C 304.60223,518.69205 305.88442,517.62015 306.66207,519.38318 C 307.99267,521.57467 309.55013,523.68156 311.44788,525.14074 C 312.38763,525.74681 313.3569,526.27733 314.41395,526.48395 C 314.87813,526.57469 316.21453,525.99621 315.81624,526.30127 C 315.52423,526.52494 314.16022,527.49499 314.92506,526.94179 C 315.74537,526.24016 316.7581,525.36107 316.79668,524.03944 C 316.7308,522.92167 316.68947,521.86277 316.07165,520.96289 C 315.60027,520.17812 315.09732,519.42083 314.73036,518.55038 C 314.39095,517.61451 314.47583,516.87303 315.18945,516.2706 C 317.168,514.84231 315.70153,514.57648 318.24298,514.9166 C 318.93893,515.18269 319.63122,515.53265 320.35652,515.63049 C 323.06702,515.6108 319.1562,517.45779 320.61872,515.64906 C 321.00637,514.68698 321.44345,513.65631 321.20802,512.56389 C 320.44068,510.27779 318.96525,508.25951 317.51041,506.59715 C 315.79517,504.97636 314.25468,504.16027 312.27596,505.53045 C 309.74252,506.93314 309.59014,507.42392 305.83048,509.50456 C 304.3706,510.27319 302.95246,511.25819 301.31686,510.899 C 300.17016,510.67935 298.88067,510.51991 297.9215,509.66991 C 297.46674,509.04469 297.41238,508.32667 297.24667,507.53274 C 296.88195,506.65629 296.39137,505.71071 295.52011,505.60815 C 294.07075,505.49552 290.30089,506.47601 292.45554,505.52449 C 290.66792,507.01467 289.0639,508.87228 287.00328,509.83186 C 286.35964,510.15192 285.80032,510.33349 285.20673,509.78489 C 284.77367,509.3326 284.45375,508.82286 284.26997,508.14857 C 283.97755,507.49049 283.6354,506.84673 283.18099,506.339 C 281.0715,505.61433 284.86227,504.75849 282.95227,506.24943 C 280.77224,509.19865 280.50771,509.47496 279.60446,509.72232 L 280.88661,508.58417 z "
       id="path4861"
       style="fill:#dfdfdf;fill-opacity:1;fill-rule:nonzero;stroke:none;stroke-width:1px;stroke-linecap:butt;stroke-linejoin:miter;stroke-opacity:1" />
    <path
       d="M 290.20414,514.58463 C 290.15854,515.11532 290.30532,515.60799 290.47686,516.08269 C 290.76357,516.60662 291.19073,516.95338 291.62158,517.28134 C 292.0556,517.59636 292.51023,517.80922 292.99771,517.96036 C 293.45136,518.12163 293.90199,518.20392 294.37326,518.22171 C 294.86942,518.22279 295.36558,518.22117 295.86175,518.22105 C 297.58467,517.39082 294.49412,519.45946 295.66717,518.52676 C 295.97675,518.2519 296.23213,517.89984 296.50422,517.57321 C 296.84041,517.23757 297.12497,516.85508 297.37826,516.42656 L 298.81774,515.66593 C 298.55866,516.088 298.31286,516.52414 297.95164,516.83462 C 297.67483,517.16491 297.41809,517.51801 297.1256,517.82816 C 296.35211,518.47333 295.55208,519.23332 294.59782,519.34307 C 294.10096,519.34327 293.60407,519.34673 293.10723,519.34124 C 292.63003,519.30804 292.16931,519.20439 291.70962,519.03855 C 291.21431,518.8765 290.75275,518.64648 290.31407,518.31713 C 289.86597,517.95959 289.41624,517.59373 289.11766,517.03697 C 288.9408,516.53767 288.78773,516.01793 288.79205,515.46371 L 290.20414,514.58463 z "
       id="path4863"
       style="fill:#dfdfdf;fill-opacity:1;fill-rule:nonzero;stroke:none;stroke-width:1px;stroke-linecap:butt;stroke-linejoin:miter;stroke-opacity:1" />
    <path
       d="M 307.03077,513.80391 C 307.21403,513.95045 307.55998,514.35814 307.77453,514.63207 C 308.0919,514.96793 308.51906,515.02669 308.90792,515.18322 C 309.38479,515.29614 309.85948,515.34925 310.34557,515.35948 C 310.79547,515.54604 311.1765,515.44295 311.60352,515.26696 C 312.47294,514.84805 313.57412,514.04369 311.44702,515.51761 C 314.90878,512.29445 310.52184,516.96485 312.27911,514.68117 C 312.48428,514.32888 312.72446,514.01057 312.96107,513.6899 L 314.39728,512.95633 C 314.16116,513.26965 313.93256,513.5878 313.71552,513.91753 C 313.05514,514.90355 310.0242,516.99749 312.90834,514.82298 C 312.07317,515.41781 311.27584,516.03245 310.37635,516.45406 C 309.93364,516.58515 309.53004,516.62409 309.08075,516.47993 C 308.58707,516.46424 308.10207,516.38949 307.61845,516.26784 C 307.20285,516.10022 306.75766,516.02194 306.43677,515.6279 C 306.1726,515.30055 305.87619,515.01037 305.61868,514.68299 L 307.03077,513.80391 z "
       id="path4865"
       style="fill:#dfdfdf;fill-opacity:1;fill-rule:nonzero;stroke:none;stroke-width:1px;stroke-linecap:butt;stroke-linejoin:miter;stroke-opacity:1" />
    <path
       d="M 280.59173,516.08317 C 280.65511,515.41725 281.76037,515.15804 282.04874,514.92707 C 282.46038,514.59735 280.35117,516.14493 280.76823,515.82553 C 284.84845,512.70066 278.02022,517.87894 282.65219,514.43509 C 283.03614,514.14963 281.87173,514.98005 281.48151,515.25254 C 286.78423,512.1955 278.40066,516.04749 283.87856,513.59675 C 284.35659,513.50498 284.84801,513.51211 285.32534,513.58612 C 285.7252,513.79063 286.07767,514.08857 286.35751,514.48393 C 286.48175,514.70377 286.60662,514.9229 286.72993,515.14376 L 285.37873,516.11272 C 285.25265,515.89097 285.12509,515.67082 285.00112,515.44742 C 284.72662,515.12554 284.42555,514.81446 284.04671,514.68215 C 283.57965,514.65413 283.09697,514.6074 282.64269,514.77362 C 280.85368,515.66854 286.50647,512.16217 282.07889,515.10258 C 281.66022,515.38062 284.10606,513.50168 282.94216,514.56666 C 282.44012,514.92226 281.9396,515.28109 281.43604,515.63346 C 281.02009,515.92453 282.26358,515.04209 282.67821,514.74822 C 282.78794,514.67044 282.47611,514.93679 282.367,515.01586 C 281.899,515.355 281.40896,515.65201 280.96176,516.03075 C 280.55967,516.37128 282.65533,514.83268 282.23127,515.13081 C 281.76081,515.46157 281.30815,515.83238 280.82253,516.12864 C 280.40416,516.38387 282.47034,515.24331 282.00382,515.20409 L 280.59173,516.08317 z "
       id="path4867"
       style="fill:#dfdfdf;fill-opacity:1;fill-rule:nonzero;stroke:none;stroke-width:1px;stroke-linecap:butt;stroke-linejoin:miter;stroke-opacity:1" />
    <path
       d="M 291.45449,512.1796 C 291.5882,511.54477 293.00003,510.93388 293.00239,510.93212 C 293.41376,510.62596 291.31462,512.06436 291.75061,511.81418 C 292.72943,511.25252 293.11201,510.77659 294.02973,510.53729 C 294.5249,510.38181 295.04344,510.39815 295.54778,510.43785 C 296.05934,510.5302 296.4992,510.86115 296.93754,511.17528 C 297.36699,511.49108 297.82079,511.72127 298.29245,511.9155 C 298.64109,512.10248 298.97107,512.31176 299.27843,512.58211 C 299.55478,512.9015 299.85526,513.18279 300.13877,513.49189 C 300.42748,513.83442 300.67411,514.22474 300.94353,514.58906 C 301.21525,514.91687 301.38631,515.33335 301.54143,515.74921 C 301.57245,515.84303 301.59547,515.94023 301.62248,516.03568 L 300.24769,516.9555 C 300.21988,516.85792 300.19906,516.75703 300.16416,516.66236 C 300.01007,516.28645 299.86947,515.88666 299.60597,515.59233 C 299.33988,515.22238 299.09678,514.82828 298.79989,514.49274 C 298.5153,514.19238 298.22158,513.9068 297.94526,513.59468 C 297.64283,513.36351 297.33122,513.14973 296.99561,512.99166 C 296.51851,512.78744 296.06936,512.52444 295.63336,512.20965 C 295.19924,511.92264 294.77695,511.59705 294.27298,511.54098 C 293.77527,511.53468 293.27262,511.51681 292.78998,511.69445 C 292.5134,511.77288 291.73311,512.18231 291.9768,512.00427 C 292.38488,511.70612 293.62573,510.84642 293.21008,511.12855 C 292.73015,511.45431 292.26687,511.8162 291.78391,512.1352 C 291.40852,512.38314 293.27948,511.16887 292.86658,511.30052 L 291.45449,512.1796 z "
       id="path4869"
       style="fill:#dfdfdf;fill-opacity:1;fill-rule:nonzero;stroke:none;stroke-width:1px;stroke-linecap:butt;stroke-linejoin:miter;stroke-opacity:1" />
    <path
       d="M 379.3106,520.41839 C 379.61016,519.49726 376.43934,522.07238 377.12748,521.61 C 377.88554,521.10063 378.7128,520.70262 379.5004,520.24025 C 380.20688,519.82551 378.08284,521.06189 377.37086,521.46712 C 377.11744,521.61135 377.82852,521.10333 378.03308,520.89552 C 378.87726,520.0379 379.63843,519.09398 380.43301,518.19091 C 381.67719,516.81601 383.51316,514.92049 385.37983,515.90102 C 386.14666,516.66421 386.76946,517.5703 387.28909,518.51667 C 387.57041,519.42849 388.11081,520.08017 388.8194,520.6781 C 389.79129,521.33787 390.65512,520.95687 391.6473,520.52768 C 393.18891,519.97505 392.34424,520.04911 396.41427,517.13543 C 399.4188,514.85866 402.45112,514.65381 406.04748,514.81502 C 407.53356,515.01788 408.53461,516.40118 409.1346,517.69073 C 409.45197,518.73513 409.47568,519.72985 410.24988,520.53828 C 411.84344,521.65806 413.90961,521.88716 415.79807,522.13866 C 418.46876,522.51756 420.83903,521.21107 423.22371,520.18161 C 428.84408,517.8464 427.63105,517.59726 434.10411,514.6782 C 437.55548,512.68289 440.10821,514.15403 443.08442,516.35619 C 445.55815,518.70788 447.9841,521.53172 449.47957,524.64131 C 450.00966,526.1692 449.23261,527.70255 448.59358,529.07848 C 447.8707,531.12325 445.64447,531.65022 443.67917,531.66078 C 442.44591,531.44438 441.26996,530.97126 440.05883,530.64306 C 440.18198,530.03841 437.67683,531.09176 438.21322,530.7867 C 438.84755,530.42592 440.74062,529.3263 440.11123,529.69565 C 438.50432,530.63865 435.56648,532.30298 439.49159,530.07146 C 438.33535,530.82082 438.11193,531.61528 438.57505,532.86877 C 439.22179,534.02496 440.00698,535.09818 440.78231,536.171 C 441.88733,537.43993 441.96221,538.93205 442.09799,540.52474 C 442.21353,542.45261 440.40612,543.74626 439.01547,544.78641 C 435.23838,547.57887 432.64143,546.61625 428.72338,544.58819 C 425.56303,542.47731 422.85202,539.60438 420.51759,536.60739 C 419.22706,534.41828 417.10341,535.91373 415.1225,536.60013 C 410.99745,538.99398 417.45008,534.20625 413.82174,537.56208 C 412.8043,538.51997 412.0007,539.67089 411.15485,540.77573 C 410.17726,541.9468 409.16818,543.10967 407.90072,543.9722 C 404.41513,546.47521 401.47294,545.87698 397.54971,544.58376 C 395.03515,543.9439 393.38196,542.5277 392.06993,540.40469 C 391.5541,539.35441 390.85129,538.43546 390.11455,537.53506 C 389.14593,536.59024 388.00455,535.87728 386.74511,535.38693 C 385.47754,534.89179 384.22259,535.46605 382.99184,535.81236 C 385.11272,534.16266 384.71898,535.10652 382.72997,536.60025 C 380.86916,537.94393 378.96541,538.80863 376.73959,539.08928 C 374.77458,539.12774 372.64833,539.46692 370.85825,538.49254 C 369.79232,537.86212 369.02318,536.99154 368.52653,535.88817 C 368.31999,534.99395 368.41048,534.25172 368.83135,533.46771 C 370.07085,532.1343 371.76793,531.41717 373.33585,530.56738 C 374.06643,530.25294 374.8374,530.09133 375.58521,529.82722 C 378.85585,528.00916 373.68847,531.35991 375.68049,529.72405 C 376.35967,529.08455 376.7062,528.26018 376.97726,527.38744 C 377.18458,526.61009 377.42054,525.84225 377.5547,525.04922 C 377.60742,524.2283 377.60149,523.41338 377.46278,522.60666 C 377.3665,522.36437 377.31685,522.10859 377.24887,521.85831 L 379.56272,520.58977 C 379.62908,520.84101 379.68102,521.09704 379.77362,521.34134 C 379.95632,522.17528 379.94637,523.01861 379.90868,523.87285 C 379.82481,524.70094 379.53871,525.46479 379.36126,526.27189 C 379.0861,527.15796 378.76877,528.03863 378.10795,528.71678 C 376.80765,529.94737 375.13249,530.69772 373.51727,531.44601 C 372.75751,531.67666 371.9948,531.8862 371.25831,532.18673 C 371.39324,532.10442 373.95177,530.38051 371.25375,532.44057 C 370.76478,533.13991 370.66251,533.76547 370.83982,534.63333 C 371.29881,535.68545 372.01104,536.51103 373.04718,537.07583 C 374.87159,537.86268 376.86495,537.73414 378.81722,537.53941 C 380.36137,537.2942 383.55808,535.65395 379.71299,537.90071 C 379.52018,538.01337 380.46837,537.42425 380.28324,537.54913 C 381.93003,536.45488 382.96411,534.70851 385.06727,534.2122 C 386.34427,533.86754 387.60683,533.34876 388.89781,533.94272 C 390.17365,534.4711 391.39527,535.19337 392.3564,536.19499 C 393.0967,537.10936 393.82668,538.03152 394.33675,539.09956 C 395.55856,541.18232 397.13173,542.56415 399.55257,543.22427 C 401.31387,543.81024 403.1642,544.32096 405.03902,544.28658 C 405.86383,544.27146 408.1637,543.32932 407.45552,543.75243 C 406.79796,544.14529 406.13215,544.52419 405.47047,544.91008 C 406.78571,544.11984 407.79055,542.93402 408.78891,541.78676 C 409.63372,540.68621 410.40914,539.52355 411.4107,538.55442 C 413.04835,537.01449 414.93903,535.74732 417.1065,535.05744 C 419.25116,534.35121 421.41055,532.87369 422.72023,535.30387 C 424.96116,538.32465 427.58414,541.2288 430.78023,543.24016 C 432.36292,544.07557 433.99531,544.80684 435.77553,545.09166 C 436.55727,545.21673 438.80797,544.41934 438.1372,544.83985 C 437.64541,545.14815 435.34821,546.48528 436.63632,545.72274 C 438.01784,544.75561 439.72342,543.54386 439.7884,541.72211 C 439.67744,540.18136 439.60784,538.72177 438.56734,537.48136 C 437.77347,536.39962 436.92642,535.35576 436.30841,534.15593 C 435.7368,532.86591 435.87974,531.84385 437.08158,531.01345 C 440.41376,529.04468 437.94401,528.67826 442.22418,529.14709 C 443.39626,529.51386 444.56218,529.99626 445.78369,530.13112 C 450.34856,530.10398 443.76217,532.64989 446.22527,530.15672 C 446.87813,528.83057 447.61424,527.40988 447.21774,525.90408 C 445.92543,522.75289 443.44058,519.97087 440.99042,517.67945 C 438.1017,515.44534 435.50729,514.32043 432.17484,516.2091 C 427.90816,518.14259 427.65153,518.81909 421.31972,521.68707 C 418.86107,522.74655 416.47271,524.10429 413.71811,523.60918 C 411.7869,523.30641 409.61522,523.08664 407.99984,521.91499 C 407.23396,521.05318 407.1424,520.06344 406.86333,518.96908 C 406.24908,517.76097 405.42287,516.45758 403.95554,516.31621 C 401.51461,516.16096 395.16562,517.51247 398.79436,516.20089 C 395.78374,518.25497 393.08234,520.81552 389.61196,522.13822 C 388.52798,522.57939 387.586,522.82967 386.58631,522.07347 C 385.85697,521.45003 385.31817,520.7474 385.00867,519.81795 C 384.51619,518.91085 383.93996,518.02348 383.17466,517.32362 C 379.62197,516.32472 386.00618,515.14503 382.78947,517.20016 C 379.11798,521.26539 378.67247,521.64626 377.15127,521.98723 L 379.3106,520.41839 z "
       id="path4871"
       style="fill:#dfdfdf;fill-opacity:1;fill-rule:nonzero;stroke:none;stroke-width:1px;stroke-linecap:butt;stroke-linejoin:miter;stroke-opacity:1" />
    <path
       d="M 395.00267,528.68949 C 394.92587,529.421 395.17307,530.1001 395.46197,530.75443 C 395.94483,531.47662 396.66424,531.9546 397.38985,532.40667 C 398.12081,532.84089 398.88646,533.13431 399.70745,533.34264 C 400.47147,533.56493 401.23039,533.67837 402.02408,533.70288 C 402.85969,533.70437 403.6953,533.70214 404.53091,533.70198 C 407.43257,532.55757 402.22763,535.40901 404.20321,534.12337 C 404.7246,533.7445 405.15469,533.25921 405.61293,532.80899 C 406.17912,532.34634 406.65837,531.81911 407.08494,531.22843 L 409.50924,530.17997 C 409.0729,530.76175 408.65894,531.36293 408.05059,531.79091 C 407.5844,532.24618 407.15202,532.7329 406.65942,533.16041 C 405.35676,534.04972 404.00939,535.0973 402.40227,535.24858 C 401.56549,535.24886 400.72866,535.25362 399.89191,535.24606 C 399.08822,535.20029 398.3123,535.05742 397.53813,534.82883 C 396.70395,534.60546 395.92662,534.2884 395.18782,533.83441 C 394.43314,533.34158 393.67573,532.83727 393.17289,532.06983 C 392.87502,531.38159 392.61723,530.66517 392.62451,529.90122 L 395.00267,528.68949 z "
       id="path4873"
       style="fill:#dfdfdf;fill-opacity:1;fill-rule:nonzero;stroke:none;stroke-width:1px;stroke-linecap:butt;stroke-linejoin:miter;stroke-opacity:1" />
    <path
       d="M 423.34117,527.61334 C 423.64982,527.81533 424.23244,528.37729 424.59377,528.75489 C 425.12827,529.21784 425.84767,529.29883 426.50258,529.51459 C 427.30569,529.67024 428.10514,529.74345 428.92378,529.75755 C 429.68149,530.01471 430.3232,529.87261 431.04236,529.63002 C 432.50658,529.05259 434.36113,527.94385 430.77879,529.97552 C 436.60889,525.53268 429.22065,531.97041 432.18014,528.82257 C 432.52568,528.33696 432.93018,527.8982 433.32867,527.45618 L 435.74745,526.44502 C 435.34979,526.87691 434.9648,527.31545 434.59927,527.76996 C 433.48709,529.1291 428.38255,532.0154 433.23986,529.01804 C 431.83332,529.83796 430.49049,530.68518 428.97562,531.26633 C 428.23003,531.44703 427.55032,531.50071 426.79364,531.302 C 425.96222,531.28037 425.1454,531.17733 424.33092,531.00965 C 423.63099,530.7786 422.88122,530.6707 422.34079,530.12755 C 421.8959,529.67632 421.39669,529.27634 420.96301,528.82507 L 423.34117,527.61334 z "
       id="path4875"
       style="fill:#dfdfdf;fill-opacity:1;fill-rule:nonzero;stroke:none;stroke-width:1px;stroke-linecap:butt;stroke-linejoin:miter;stroke-opacity:1" />
    <path
       d="M 378.81398,530.7551 C 378.92072,529.83718 380.78214,529.47989 381.26779,529.16151 C 381.96105,528.70703 378.40884,530.84023 379.11122,530.39996 C 385.98291,526.0926 374.48318,533.23041 382.28408,528.48337 C 382.93072,528.08988 380.96968,529.23455 380.31249,529.61014 C 389.24305,525.39629 375.12389,530.70591 384.34948,527.32779 C 385.15454,527.20129 385.98217,527.21112 386.78606,527.31313 C 387.45949,527.59503 388.0531,528.00572 388.52438,528.55068 C 388.73363,528.85371 388.94392,529.15577 389.1516,529.4602 L 386.87598,530.79583 C 386.66364,530.49016 386.44881,530.18671 386.24003,529.87877 C 385.77773,529.43509 385.27069,529.00629 384.63267,528.82391 C 383.84607,528.78529 383.03317,528.72088 382.26809,528.95 C 379.25513,530.18356 388.77526,525.35034 381.31857,529.40344 C 380.61346,529.7867 384.73261,527.19674 382.77244,528.66472 C 381.92693,529.15489 381.08399,529.6495 380.23592,530.13521 C 379.5354,530.53642 381.62961,529.32006 382.32791,528.91498 C 382.51271,528.80778 381.98755,529.17492 381.80379,529.2839 C 381.01561,529.75138 380.19031,530.16078 379.43716,530.68284 C 378.75998,531.15223 382.28937,529.03141 381.5752,529.44235 C 380.78288,529.89827 380.02052,530.40941 379.20267,530.81777 C 378.49807,531.16958 381.97783,529.59742 381.19214,529.54336 L 378.81398,530.7551 z "
       id="path4877"
       style="fill:#dfdfdf;fill-opacity:1;fill-rule:nonzero;stroke:none;stroke-width:1px;stroke-linecap:butt;stroke-linejoin:miter;stroke-opacity:1" />
    <path
       d="M 397.10845,525.37437 C 397.33363,524.49931 399.71136,523.65725 399.71534,523.65483 C 400.40814,523.23281 396.87289,525.21552 397.60716,524.87067 C 399.25563,524.09647 399.89996,523.44044 401.44552,523.11059 C 402.27947,522.89627 403.15276,522.9188 404.00215,522.97352 C 404.86369,523.10082 405.60447,523.55701 406.3427,523.99001 C 407.06596,524.42531 407.83022,524.7426 408.62457,525.01033 C 409.21173,525.26807 409.76747,525.55654 410.28511,525.9292 C 410.75051,526.36945 411.25657,526.75718 411.73404,527.18324 C 412.22027,527.6554 412.63563,528.19341 413.08937,528.6956 C 413.54699,529.14746 413.83508,529.72153 414.09633,530.29476 C 414.14857,530.42408 414.18734,530.55806 414.23282,530.68964 L 411.91748,531.95753 C 411.87065,531.82302 411.83558,531.68396 411.77681,531.55346 C 411.5173,531.0353 411.2805,530.48423 410.83673,530.07852 C 410.3886,529.56858 409.97918,529.02534 409.47917,528.56283 C 408.99988,528.14881 408.50521,527.75516 408.03985,527.32493 C 407.53051,527.00629 407.00571,526.71161 406.44051,526.49373 C 405.63699,526.21223 404.88056,525.8497 404.14628,525.41579 C 403.41515,525.02018 402.70396,524.57137 401.8552,524.49409 C 401.01698,524.48541 400.17044,524.46077 399.3576,524.70564 C 398.8918,524.81374 397.57769,525.37811 397.98809,525.1327 C 398.67536,524.72172 400.76513,523.5367 400.06512,523.92559 C 399.25685,524.37462 398.47662,524.87346 397.66324,525.31317 C 397.03103,525.65493 400.182,523.98117 399.48661,524.16264 L 397.10845,525.37437 z "
       id="path4879"
       style="fill:#dfdfdf;fill-opacity:1;fill-rule:nonzero;stroke:none;stroke-width:1px;stroke-linecap:butt;stroke-linejoin:miter;stroke-opacity:1" />
    <text
       xml:space="preserve"
       style="font-size:55.14768982px;font-style:normal;font-weight:normal;line-height:125%;fill:#000000;fill-opacity:1;stroke:none;stroke-width:1px;stroke-linecap:butt;stroke-linejoin:miter;stroke-opacity:1;font-family:Bitstream Vera Sans"
       x="207"
       y="588.22247"
       id="text5754"
       sodipodi:linespacing="125%"><tspan
         sodipodi:role="line"
         id="tspan5756"
         x="207"
         y="588.22247"
         style="font-size:55.14768982px;font-style:normal;font-variant:normal;font-weight:bold;font-stretch:normal;text-align:start;line-height:125%;writing-mode:lr-tb;text-anchor:start;font-family:MgOpen Modata">no picture</tspan></text>
  </g>
</svg>
